<?xml version="1.0" encoding="UTF-8"?>
<svg id="Layer_1" xmlns="http://www.w3.org/2000/svg" version="1.1" viewBox="0 0 1536 1024">
  <!-- Generator: Adobe Illustrator 30.3.0, SVG Export Plug-In . SVG Version: 2.1.3 Build 182)  -->
  <defs>
    <style>
      .st0 {
        fill: #339a4b;
      }

      .st1 {
        fill: #319949;
      }

      .st2 {
        fill: #53e975;
      }

      .st3 {
        fill: #070909;
      }

      .st4 {
        fill: #329d4a;
      }

      .st5 {
        fill: #51e272;
      }

      .st6 {
        fill: #54ee78;
      }

      .st7 {
        fill: #238335;
      }

      .st8 {
        fill: #309948;
      }

      .st9 {
        fill: #07090a;
      }

      .st10 {
        fill: #2f9645;
      }

      .st11 {
        fill: #2e9845;
      }

      .st12 {
        fill: #319849;
      }

      .st13 {
        fill: #329d4c;
      }

      .st14 {
        fill: #090a0b;
      }

      .st15 {
        fill: #429f57;
      }

      .st16 {
        fill: #0a0b0b;
      }

      .st17 {
        fill: #08090a;
      }

      .st18 {
        fill: #309748;
      }

      .st19 {
        fill: #329b49;
      }

      .st20 {
        fill: #359b4c;
      }

      .st21 {
        fill: #41be5d;
      }

      .st22 {
        fill: #070a09;
      }

      .st23 {
        fill: #080909;
      }
    </style>
  </defs>
  <g>
    <g>
      <polygon class="st23" points="686.74 381.31 724.13 381.4 661.5 552.12 620.98 552.14 557 381.35 597.62 381.34 634.64 487.28 642.05 508.21 686.74 381.31"/>
      <path class="st17" d="M793.04,520.05l3.92-4.75,34.45.21c-4.43,17.53-16.19,29.11-32.17,35.37-36.55,11.66-79.9-2.26-88.47-41.6-2.99-13.72-2.99-27.85.73-41.34,10.15-36.86,49.54-49.21,84.49-37.98,29.27,11.17,38.97,38.54,36.37,69.34h-88.67c.41,8.05,3.03,16.14,9.7,21.37,11.31,8.88,28.19,8.83,39.65-.63ZM798.66,477.22c-.78-14.49-11.68-24.26-25.83-25.02-15.53-.84-27.66,9.39-28.63,25.04l54.46-.02Z"/>
      <path class="st14" d="M1039.07,511.72c2.22,28.67-21.7,41.38-49.43,42.73-32.01,1.56-62.42-6.41-64.1-41.24h35.2c1.43,5.79,4.98,10.36,10.75,12.14,13.87,4.28,31.81,1.18,32.28-7.71,1.14-21.65-66.63-6.37-74.13-46.22-3.59-19.09,5.9-36.23,24.7-41.74,16.97-4.97,35.62-5.1,52.77-.03,16.19,4.78,27.18,18.87,27.6,35.57h-34.19c-2.89-12.88-18.38-15.21-30.78-12-4.73,1.22-9.04,6.76-6.32,11.37,2.51,4.25,8.51,6.48,13.28,7.51l27.15,5.89c19.06,4.14,33.66,13.84,35.21,33.72Z"/>
      <polygon class="st23" points="1283.22 488.58 1245.25 593.07 1208.36 593.09 1225.01 549.95 1179.37 428.96 1216.25 428.89 1243.07 506.89 1269.81 429 1305.23 429.03 1283.22 488.58"/>
      <path class="st9" d="M1146.54,454.49v97.65s-35.99,0-35.99,0v-97.65s-16.14-.04-16.14-.04l-.14-25.54,16.2.03.49-19.4c.19-7.46,3.5-14.08,8.42-19.39,7.7-6.29,16.72-10.38,26.78-10.31l30.32.22.07,29.19-21.01-.33c-4.79-.08-7.84,3.67-8.78,7.78l-.23,12.25h29.05s-.07,25.61-.07,25.61l-28.97-.07Z"/>
      <path class="st3" d="M881.68,552.08l-36.31.06-.12-123.27h32.86s.03,19.78.03,19.78c5.13-12.46,14.11-20.35,26.84-21.31l14.74-1.11-.07,34.03c-20.18-.3-35.91,5.27-37.91,26.11l-.07,65.7Z"/>
      <rect class="st16" x="1049.81" y="428.75" width="35.28" height="123.49"/>
      <ellipse class="st14" cx="1069.13" cy="399.03" rx="20.15" ry="20.14"/>
    </g>
    <g>
      <path class="st21" d="M502.61,477.58l-.68,1.53v27.16s.65,2.22.65,2.22c-2.67,32.92-15.95,63.62-37.67,88.56-18.34,21.07-41.09,37.79-67.6,47.05l-18.53,5.5c-18.18,5.4-37.36,5.9-56.22,4.98-43.58-2.13-83.17-20.49-112.49-52.48-24.8-27.06-40.27-60.57-42.63-97.05,0,.71.71-1.62.71-2.24v-22.33c0-.53-.73-2.86-.68-2.61,6.17-77.95,67.96-137.7,145.09-146.26,3.48,1.29,6.76.73,9.7-1.02,6.61,1.3,12.96.21,19.76.06,7.59-.17,15.16.73,22.93,1.96,37.71,6.01,72.71,24.91,97.9,53.64,22.66,25.85,37.21,57.12,39.75,91.31ZM386.8,395.08c-4.15,2.79-8.08,6.59-10.84,11.04-.1-.79-.73.54-1,1.11l-1.16,1.02c-2.32,2.03-4.87,7.35-6.44,10.53-1.06.62-3.91,1.39-4.56,2.39l-6.49,10.07-7.2,14.79-5.69,18.78c-.3,1-1.3,2.66-1.98,3.28l-2.32,2.13c-6.25,15.14-8.62,30.55-8.15,47,.2,2.75.97,6.11,1.76,7.99l.29,2.56c.09.76,1.26,1.38,2.01,1.43l2.01.14,2.3.26c2.97-4.96,4.41-9.68,6.25-15.03l8.43-24.53,13.9-34.75c1.78-1.42,2.61-3.91,3.98-6.25l11.19-19.17,1.93-1.11c.5-.29,1.83.72,2.32,1.11l-.15.48c-1.51.17-2.95,2.3-3.82,4.09l-4.18,8.65-4.9,10.24-5.96,13.3-14.08,35.94-8.54,24.28-11.16,29.74-24.55-64.3-2.56-6.49-15.68-39.65c2.03-5.13,8.26-4.26,8.66-5.08l.33-1.81c.22-.03,1.24.23,1.42.12l4.71-2.89-2.69-1.36-.08-1.03c-.08-1.07-1.61-2.25-3.14-2.85l-61.99-.05-2.94,1.91-.95,1.1c-.38.28-1.39,1.12-1.11,1.53l1.06,1.55.92,1.2c1.11,3.37,8.95,1.64,10.58,5.76l10.92,27.48,4.04,10.15,29.19,74.62,16.68,41.32,2.72-.76-2.05,1.93,32.09.15.89-2.05c.47-.24.77-.47.66-.71l-.58-1.35.49-1.28,2.42-2.92,15.35-59.09,2.82-2.47,5.81-5.04,7.11-7.08,5.77-6.06c.2.37.57.91.57.93-.06-.52,9.47-10.84,14.42-22.78.5-1.22-2.73-3.4-3.77-3.34l5.81-7.74,2-1.93c.39-.38,1.88-.21,1.94-.75l-.04-2.47,1.54-.58c6.62-7.81,10.75-17.21,13.04-28.67l-2.39.33-.93.18-6.1-1.04,8.16-8.76,5.88-9.03c10.07-15.46,5.9-50.67-2-48.27-10.87,3.31-26.82,10.33-32.23,17.89Z"/>
      <path class="st7" d="M502.58,508.49l-.65-2.22v-27.16s.68-1.53.68-1.53c.78,10.44.81,20.54-.03,30.92Z"/>
      <polygon class="st5" points="307.39 597.83 290.71 556.5 261.52 481.88 257.48 471.73 246.56 444.25 249.84 448.53 269.44 497.77 272.55 505.66 307.39 597.83"/>
      <path class="st6" d="M304.13,434.1l-11.03-1.88-50.91.03-6.12.86,2.94-1.91,61.99.05c1.53.6,3.06,1.78,3.14,2.85Z"/>
      <path class="st2" d="M340.91,469.53c-6.3,15.41-11.06,39.46-8.18,55.69-.79-1.88-1.56-5.24-1.76-7.99-.47-16.45,1.9-31.86,8.15-47l2.32-2.13-.53,1.43Z"/>
      <polygon class="st6" points="341.03 597.1 340.15 599.15 308.06 599 310.11 597.07 341.03 597.1"/>
      <path class="st5" d="M335.03,529.2c-.74-.05-1.92-.67-2.01-1.43l-.29-2.56,2.3,3.99Z"/>
      <polygon class="st5" points="302.18 439.37 304.2 435.12 306.89 436.48 302.18 439.37"/>
      <path class="st6" d="M235.06,437.28l-1.06-1.55c-.28-.41.72-1.25,1.11-1.53l-.05,3.07Z"/>
      <path class="st2" d="M375.96,406.12l-1,1.11c.27-.57.89-1.9,1-1.11Z"/>
      <g>
        <path class="st22" d="M413.09,444.28l.93-.18c-1.74,10.09-5.47,19.62-10.65,28.34l-1.54.58-1.9,3.23-2,1.93-7.13,6.68-10.08,7.1,14.07-4.05c-4.35,8.74-7.88,16.89-13.89,23.2l-5.77,6.06-7.11,7.08-5.81,5.04c-2.27.24-4.57,2.29-5.21,4.79l-15.38,59.69-.49,1.28-.08,2.06-30.93-.03-2.72.76-34.84-92.17-3.1-7.89-19.6-49.24-3.28-4.28c.24-1.25-1.15-3.62-2.35-3.93l-8.23-1.83-.92-1.2.05-3.07.95-1.1,6.12-.86,50.91-.03,11.03,1.88.08,1.03-2.03,4.25c-.18.11-1.2-.15-1.42-.12-3.26.44-8.68,3.16-10.83,7.02l17.11,42.97,27.29,70.41,12.99-32.25c11.48-33.49,23.32-66.44,39.86-97.05l.15-.48,12.87-22.68c-5.25,4.7-9.56,10.95-13.35,15.79l-1.03,1.31-3.9,5.59-9.7,15.62c-2.09,3.36-3.04,6.63-4.32,9.81-.42.49-1.55,1.82-1.95,2.68l-4.17,8.98c-8.49,18.29-14.73,36.95-20.55,56.33-.72,2.4-2.51,4.8-4.2,6.06l-2.01-.14-2.3-3.99c-2.88-16.23,1.88-40.28,8.18-55.69.6-.38.68.32.83.87l2.86,11.01.49-15.18c2.63-16.78,9.95-31.62,19.11-45.23l.78,1.15.56,8.52c2.67-8.72,4.96-15.34,8.26-22.42l1.16-1.02,1-1.11c2.76-4.45,6.69-8.25,10.84-11.04,10.3-6.92,19.24-13.76,34.09-16.16,8.24,16.76,4.28,40.04-6.31,54.75-4.52,6.27-10.1,8.98-17.45,13.15l15.96-2.54Z"/>
        <path class="st5" d="M387.18,430.35c-16.54,30.61-28.38,63.55-39.86,97.05l-12.99,32.25-27.29-70.41-17.11-42.97c2.15-3.85,7.57-6.58,10.83-7.02l-.33,1.81c-.4.83-6.63-.05-8.66,5.08l15.68,39.65,2.56,6.49,24.55,64.3,11.16-29.74,8.54-24.28,14.08-35.94,5.96-13.3,4.9-10.24,4.18-8.65c.86-1.78,2.31-3.92,3.82-4.09Z"/>
        <path class="st5" d="M413.09,444.28l-15.96,2.54c7.35-4.17,12.93-6.88,17.45-13.15,10.59-14.7,14.56-37.99,6.31-54.75-14.85,2.39-23.79,9.24-34.09,16.16,5.41-7.57,21.35-14.59,32.23-17.89,7.9-2.4,12.07,32.8,2,48.27l-5.88,9.03-8.16,8.76,6.1,1.04Z"/>
        <path class="st5" d="M337.04,529.34c1.69-1.25,3.48-3.65,4.2-6.06,5.82-19.38,12.06-38.04,20.55-56.33l4.17-8.98c.4-.86,1.53-2.18,1.95-2.68l-13.9,34.75-8.43,24.53c-1.84,5.35-3.28,10.07-6.25,15.03l-2.3-.26Z"/>
        <path class="st5" d="M362.2,529.29l-2.82,2.47-15.35,59.09-2.42,2.92,15.38-59.69c.64-2.5,2.94-4.55,5.21-4.79Z"/>
        <path class="st5" d="M364.2,421c-9.16,13.61-16.48,28.44-19.11,45.23l-.49,15.18-2.86-11.01c-.14-.56-.23-1.26-.83-.87l.53-1.43c.68-.62,1.67-2.28,1.98-3.28l5.69-18.78,7.2-14.79,6.49-10.07,1.4-.17Z"/>
        <path class="st5" d="M380.89,511.1c6.02-6.31,9.55-14.46,13.89-23.2l-14.07,4.05,10.08-7.1,7.13-6.68-5.81,7.74c1.04-.06,4.28,2.12,3.77,3.34-4.95,11.94-14.48,22.25-14.42,22.78,0-.02-.38-.56-.57-.93Z"/>
        <path class="st2" d="M364.2,421l-1.4.17c.64-1,3.5-1.77,4.56-2.39,1.57-3.18,4.13-8.51,6.44-10.53-3.3,7.09-5.59,13.71-8.26,22.42l-.56-8.52-.78-1.15Z"/>
        <path class="st5" d="M403.37,472.44c5.19-8.72,8.92-18.25,10.65-28.34l2.39-.33c-2.29,11.46-6.42,20.86-13.04,28.67Z"/>
        <path class="st6" d="M246.56,444.25c-1.64-4.12-9.48-2.4-10.58-5.76l8.23,1.83c1.21.32,2.59,2.69,2.35,3.93Z"/>
        <path class="st2" d="M383.09,429.87l-11.19,19.17c-1.38,2.34-2.2,4.83-3.98,6.25,1.27-3.19,2.23-6.45,4.32-9.81l9.7-15.62h1.16Z"/>
        <path class="st5" d="M387.33,429.87c-.49-.39-1.82-1.4-2.32-1.11l-1.93,1.11h-1.16s3.9-5.59,3.9-5.59l2.09,2.06c.49.46,1.21-2.09.66-2.46l-1.73-.9c3.79-4.83,8.11-11.09,13.35-15.79l-12.87,22.68Z"/>
        <path class="st5" d="M399.92,476.25l1.9-3.23.04,2.47c-.07.54-1.55.37-1.94.75Z"/>
        <path class="st5" d="M341.03,597.1l.08-2.06.58,1.35c.1.24-.19.47-.66.71Z"/>
        <path class="st21" d="M385.83,424.28l1.03-1.31,1.73.9c.55.38-.18,2.92-.66,2.46l-2.09-2.06Z"/>
      </g>
    </g>
  </g>
  <g>
    <path class="st11" d="M720.96,604.41l-.38,18.58-6,.02.16-17.1c.02-2.33-2.29-5.4-4.44-5.68-1.85-.24-5.8,2.55-5.86,4.41l-.61,18.14-6.01.23v-27.67s4.39-.09,4.39-.09c1.02-.02,1.6,2.36,1.9,3.71,1.93-1.87,4.84-3.92,7.14-4.09,3.44-.25,6.2.96,8.27,4.1,3.54-3.84,9.59-5.92,14.97-2.31,1.98,1.33,3.39,5.74,3.38,8.17l-.11,18.18-6.02.03.02-17.11c0-2.44-2.34-5.45-4.45-5.76-1.86-.27-6.33,2.13-6.37,4.23Z"/>
    <path class="st18" d="M824.27,620.12c-7.6,5.87-18.51,4.89-24.29-2.18-.72-.88-1.54-3.39-1.21-4.34.4-1.15,3.39-1.5,5.28-1.55,2.23,4.12,5.47,6.83,10.86,6.11,1.81-.24,4.23-1.21,5.28-2.19s.94-5.71-.5-6.14l-11.91-3.56c-5.69-1.7-8.4-5.34-8.22-10.68.17-4.95,4.01-8.07,9.24-9.5,7.2-1.96,15.75.41,18.08,8.18.32,1.07-2.65,2.52-3.71,2.14-2.91-1.05-7.15-8.67-15.03-3.97-1.05.63-2.28,2.9-2.23,4s1.84,3.3,3,3.6l11.04,2.87c3.26.85,6.63,3.71,7.38,6.13,1.15,3.73.3,8.49-3.05,11.08Z"/>
    <path class="st0" d="M964.17,619.78c-3.72,4.37-8.6,5.25-13.03,2.77-5.87-3.28-7.88-9.43-6.95-16.11.64-4.58,3.48-9.21,6.95-10.48,5.33-1.96,9.53-1.36,13.58,2.66l.35-13.61,6.57.09-.08,37.79-5.29.22c-1.08.04-1.76-2.36-2.11-3.33ZM964.87,608.72c.09-5.55-3.51-8.76-7.64-8.49s-6.91,4.24-6.76,8.93c.1,3.1,1.29,6.55,3.64,8.03,1.98,1.25,6.05,1.12,7.82-.33s2.9-5.09,2.95-8.14Z"/>
    <path class="st11" d="M857.99,622.93l-6.17.14-.31-18.91c-.04-2.57-4.01-4.49-6.02-4.02-2.61.62-5.82,2.87-5.82,5.76v17.16s-6.34-.09-6.34-.09l-.09-37.57,6.37-.51.13,14.29c2.43-2.99,5.11-4.29,8.99-4.34,4.81-.07,8.96,3.27,9.02,8.24l.24,19.86Z"/>
    <path class="st19" d="M676.71,617.71c7.92,2.66,9.48-5.91,15.05-1.57-2.56,7.15-11.2,9.04-17.28,6.68-6.78-2.62-9.96-10.36-8.24-17.29,1.98-7.99,8.22-11.63,15.99-10.44,6.95,1.07,11.14,7.88,10.08,15.33l-20-.02c.53,3.85,2.18,6.55,4.4,7.3ZM686.3,605.93c-1.27-4.88-4.63-6.14-7.92-5.81-2.89.29-5.26,2.54-5.95,5.95l13.87-.14Z"/>
    <path class="st8" d="M1043.63,616.62c5.12,5.79,12.81-4.58,17.17-.73-2.7,7.11-10.44,9.21-16.79,7.27-6.44-1.96-9.93-8.79-9.02-15.8,1.11-8.57,7.96-13.81,16.72-12.22,6.72,1.22,11,7.76,9.75,15.28l-19.96-.16c.16,2.29.89,4.95,2.13,6.36ZM1055.6,606.11c-.95-4.03-4.17-6.22-7.5-6.06s-5.93,2.34-6.66,6.01l14.16.04Z"/>
    <path class="st4" d="M609.88,609.7l-.86-1.74-.23,13.88c-.88.26-3.74.62-3.77-.27l-.13-3.57-1.25-5.88.5-3.24c1.03-6.63.73-14.27.77-21.65l14-.71c6.53-.33,12.02,4.67,11.98,11.1s-4.63,11.78-11.43,11.91l-9.57.17ZM618.15,604.11c2.37-.03,5.4-2.6,5.86-4.58.54-2.35-.86-6.92-3.09-7.07l-11.04-.72v12.49s8.27-.12,8.27-.12Z"/>
    <path class="st10" d="M868.44,622.68c-3.18-1.52-5.1-4.82-4.85-8.11.17-2.3,3.09-5.98,5.91-6.53l12.03-2.34c.23-2.79-1.69-5.76-4.26-5.85-3.15-.11-5.38,1.02-7.22,3.92-1.11.21-4.41-.64-5.5-1.29,1.87-6.17,6.74-7.36,12.25-7.62,5.02-.24,10.66,2.53,10.77,8.32l.37,19.76-4.48-.05c-.84,0-1.23-2.17-1.52-3.17-3.95,3.96-8.25,5.47-13.49,2.97ZM881.87,610.7l-9.17,1.08c-.97.11-2.8,2.04-2.81,2.94s1.04,2.88,1.85,3.42c1.79,1.19,5.5.87,7.09-.39,1.83-1.44,2.61-3.72,3.05-7.04Z"/>
    <path class="st1" d="M924.46,617.95c7.04,2.32,9.28-5.81,14.56-2.05-2.26,6.62-9.57,8.78-15.31,7.59-6.53-1.35-10.5-7.47-10.32-14.43.17-6.82,4.24-13.26,11.22-14.03,4.49-.49,9.36.46,11.98,3.57s3.58,8.07,2.83,11.65l-19.98.28c.82,3.82,2.84,6.68,5.03,7.4ZM933.79,606.08c-.85-3.94-3.87-6.28-7.6-6.09-2.8.14-5.49,2.59-6.58,6.06l14.18.03Z"/>
    <path class="st4" d="M662.01,606.52c1.39,10.04-5.43,17.44-14.54,17.29-8.68-.14-14.86-8.16-13.06-17.33,1.35-6.89,6.71-11.41,12.98-11.67,7.07-.29,13.51,3.73,14.62,11.71ZM655.93,609.47c.32-5.37-3.05-9.4-7.54-9.35-4.88.06-7.71,3.95-7.79,8.92-.08,5.44,2.36,9.14,7.76,9.2,4.15.05,7.25-3.28,7.57-8.76Z"/>
    <path class="st1" d="M760.25,623.14c-6.69,2.21-15.27-.08-16.86-7.04,1.73-2.05,5.83-1.16,7.4.93,2.38,3.16,8.43,1.93,9.91-.94,2.35-4.57-10.95-3.02-15.9-8.9-2.03-2.41-1.04-6.95.8-8.67,2.37-2.22,5.6-3.48,9.04-3.65,5.76-.28,10.1,1.56,11.97,7.4l-5.16,1.47c-2.06-2.54-3.63-3.48-6.18-3.93-2.01-.36-6.04,1.34-5.06,4.12,3.61,4.65,15.53.98,16.68,9.6.62,4.62-1.78,8-6.64,9.6Z"/>
    <polygon class="st13" points="1014.29 622.81 1008.62 621.84 1008.62 587.16 1015.15 587.12 1028.33 587.03 1032.62 586.05 1032.42 592.08 1014.29 592.08 1014.45 602.37 1029.66 602.29 1029.61 608.1 1014.34 608.08 1014.29 622.81"/>
    <path class="st12" d="M1088.8,616.24c.12,1.43,4.44,1.97,6.29,1.78.39.43.2,4.11-.31,5.19-3.93,1.24-10.92.22-11.88-4.37-1.15-5.45-.6-11.98-.65-17.33-2.06-.61-3.7-1.61-3.94-2.8-.46-2.22,1.33-3.89,4.09-3.66l-.28-6.17,6.52.07.03,6.54,6.92-.14-.06,5.53-7,.3.27,15.07Z"/>
    <rect class="st15" x="1050.97" y="600.8" width="38.17" height="6.55" transform="translate(465.16 1673.68) rotate(-89.96)"/>
    <path class="st20" d="M910.48,600.64l-6.81,1.87c-1.37.38-2.42,3.94-2.42,5.71l.02,14.72-6.56.1-.03-27.59,4.59-.36c1.08-.09,1.5,2.32,1.79,4.09,2.36-3.36,6.07-5.09,9.76-3.71l-.35,5.17Z"/>
    <circle class="st10" cx="1104.5" cy="619.63" r="3.97"/>
    <circle class="st18" cx="775.93" cy="619.52" r="3.84"/>
    <polygon class="st7" points="1015.15 587.12 1008.62 587.16 1008.62 621.84 1014.29 622.81 1007.62 623.01 1007.62 586.17 1015.15 587.12"/>
    <circle class="st10" cx="983.11" cy="619.54" r="3.86"/>
    <path class="st7" d="M618.91,586.52l-14,.71c-.04,7.39.26,15.02-.77,21.65l-.24-22.78,15,.42Z"/>
    <path class="st7" d="M609.88,609.7l.03,13.33h-5.94s-.34-10.91-.34-10.91l1.25,5.88.13,3.57c.03.89,2.89.53,3.77.27l.23-13.88.86,1.74Z"/>
  </g>
</svg>