<?xml version="1.0" encoding="UTF-8"?>
<svg id="Layer_1" xmlns="http://www.w3.org/2000/svg" version="1.1" viewBox="0 0 1916 821">
  <!-- Generator: Adobe Illustrator 30.3.0, SVG Export Plug-In . SVG Version: 2.1.3 Build 182)  -->
  <defs>
    <style>
      .st0 {
        fill: #fcfcfc;
      }

      .st1 {
        fill: #e0e0e0;
      }

      .st2 {
        fill: #f9f9f9;
      }

      .st3 {
        fill: #f1f1f1;
      }

      .st4 {
        fill: #faf9fa;
      }

      .st5 {
        fill: #050504;
      }

      .st6 {
        fill: #efefef;
      }

      .st7 {
        fill: #eee;
      }

      .st8 {
        fill: #ebebeb;
      }

      .st9 {
        fill: #f9f8f9;
      }

      .st10 {
        fill: #e4e4e4;
      }

      .st11 {
        fill: #f8f8f9;
      }

      .st12 {
        fill: #ececec;
      }

      .st13 {
        fill: #ededed;
      }

      .st14 {
        fill: #fafafa;
      }
    </style>
  </defs>
  <g>
    <g>
      <path class="st0" d="M667.79,416.48c0,116.85-94.72,211.57-211.57,211.57s-211.57-94.72-211.57-211.57,94.72-211.57,211.57-211.57,211.57,94.72,211.57,211.57ZM458.65,465l6.91,5.08-15,41.35c-2.56-4.19-1.28-9.4-1.79-14.34l-41.49-109.31-9.03-25.12c-2.18-6.08,1.55-11.83,8.32-13.13l-.42-8.82h-74.14c-.64,3.13-.79,5.84-.68,8.67,6.81,1.57,10.44,5.71,12.82,11.61l26.42,65.62,49.51,123.37h33.35s12.29-40.14,12.29-40.14l12.13-37.83,20.57-18.58c12.96-11.71,22.23-26.63,28.34-43.78l-20.27,4.41,13.97-8.67c6.7-4.16,12.38-9.54,16.57-16.39,6.81-11.12,12.26-22.41,16.78-35.4-7.78,2.79-13.7,5.51-21.25,6.72,10.53-7.26,21.3-12.91,27.45-24.3,8.91-16.5,10.86-37.2,4.61-55.89-5.12-.21-9.75.19-14.73,1.83-20.19,6.61-37.55,19.7-49.39,37.48-2.34,3.52-3.02,8.37-4.75,12.99l-2.4-5.16c-9.42,11.53-17.08,24.27-22.43,38.64-1.72,4.62-1.14,10-1.14,15.55l-3.1-6.37c-12.48,29.11-19.86,56.36-10.36,86.77.48,1.54,1.54,2.5,2.33,3.15Z"/>
      <g>
        <path class="st5" d="M465.56,470.08c10.57-29.14,21.89-57.69,35.24-86.22,10.94-23.37,23.56-44.41,36.77-67.11-7.77,5.91-12.64,13.23-17.82,21.15-16.83,25.71-30.9,52.59-42.7,81.06l-16.73,40.38-1.67,5.67c-.79-.64-1.85-1.61-2.33-3.15-9.49-30.41-2.12-57.67,10.36-86.77l3.1,6.37c0-5.55-.59-10.93,1.14-15.55,5.36-14.37,13.01-27.11,22.43-38.64l2.4,5.16c1.73-4.62,2.4-9.47,4.75-12.99,11.84-17.79,29.19-30.87,49.39-37.48,4.98-1.63,9.62-2.03,14.73-1.83,6.25,18.69,4.29,39.39-4.61,55.89-6.15,11.39-16.92,17.04-27.45,24.3,7.54-1.21,13.47-3.92,21.25-6.72-4.52,12.99-9.97,24.28-16.78,35.4-4.19,6.85-9.87,12.23-16.57,16.39l-13.97,8.67,20.27-4.41c-6.11,17.15-15.38,32.07-28.34,43.78l-20.57,18.58-12.13,37.83-12.29,40.15h-33.35s-49.51-123.37-49.51-123.37l-26.42-65.62c-2.37-5.89-6-10.04-12.82-11.61-.11-2.82.04-5.53.68-8.65h74.14s.42,8.8.42,8.8c-6.77,1.3-10.5,7.05-8.32,13.13l9.03,25.12,41.49,109.31c.51,4.94-.77,10.15,1.79,14.34l15-41.35Z"/>
        <path class="st12" d="M465.56,470.08l-6.91-5.08,1.67-5.67,16.73-40.38c11.8-28.47,25.86-55.35,42.7-81.06,5.18-7.92,10.05-15.24,17.82-21.15-13.21,22.7-25.83,43.74-36.77,67.11-13.36,28.53-24.68,57.08-35.24,86.22Z"/>
      </g>
    </g>
    <g>
      <polygon class="st4" points="900.51 275.27 948.09 275.07 916.16 361.36 865.68 495.08 817.44 495.2 758.46 341.69 733.26 275.21 782.67 275.06 792.91 305.26 841.99 444.85 863.26 383.12 900.51 275.27"/>
      <path class="st4" d="M984.9,457.17c18.34,14.32,50.48,11.19,59.59-12.09l37.27,5.53c-11.55,43.43-63.25,56.28-101.57,43.31-40.94-13.86-57.31-56.34-48.35-98,9.98-46.33,56.8-70.67,101.77-57.29,38.86,12.6,55.28,50.55,50.29,90.25l-112.84.08c1.13,10.97,5.07,21.36,13.83,28.2ZM1045.02,401.05c-1.18-20.42-17.14-33.62-36.04-33.24-10.01-.13-19.38,2.75-26.53,9.63-6.27,6.44-10.01,14.4-11.43,23.69l74-.09Z"/>
      <path class="st4" d="M1328.5,486.65c-18.63,11.9-43.82,14.08-65.74,10.5-27.13-4.43-48.68-20.91-50.11-48.8l38.15-2.94c.64,8.59,5.56,15.8,13.84,19.07,11.51,4.56,25.01,5.08,36.06-.57,7.48-3.82,10.97-12.98,6.22-19.84-3.31-4.79-9.24-7.02-14.87-8.26l-40.92-9.03c-11.79-2.6-22.72-9.21-29.45-19.5-9.81-15.02-8.12-34.85,2.4-49.24,7.92-10.83,19.65-17.23,32.72-20.31,36.86-8.67,83.83,2.66,88.02,43.67l-35.95,5.21c-1.79-10.01-7.83-16.47-17.04-18.55-13.54-4.24-33.62-1.28-36.27,10.32-.9,3.94-.49,9.19,3.27,11.85,4.79,3.4,10.99,5.9,16.88,7.1l33.27,6.8c8.81,1.8,17.06,5.47,24.21,10.54,10.56,7.48,15.46,18.56,15.97,31.3.66,16.78-6.38,31.55-20.66,40.67Z"/>
      <g>
        <polygon class="st2" points="1701.79 339.35 1662.14 436.25 1616.45 548.83 1573.77 548.81 1599.78 489.18 1539.52 339.45 1583.37 339.14 1620.94 442.66 1636.58 398.42 1657.94 339.25 1701.79 339.35"/>
        <path class="st2" d="M1496.62,372.59l-.07,122.56-40.8.02.04-122.51-25.05-.25.03-33.09,24.74-.08,1.36-21.48c.68-10.65,5.08-20.81,12.04-28.83,16.36-18.84,44.71-17.81,68.61-12.55l-.04,34.74c-9.27-3.07-17.76-4.28-26.54-2.42-7.77,1.65-13.59,7.52-13.88,15.5l-.55,15.07h36.22s.36,33.17.36,33.17l-36.48.15Z"/>
        <g>
          <rect class="st9" x="1313.61" y="396.76" width="156.02" height="40.93" transform="translate(974.23 1808.8) rotate(-89.99)"/>
          <circle class="st11" cx="1391.82" cy="297.76" r="24.41"/>
        </g>
      </g>
      <g>
        <path class="st14" d="M1112.6,495.18c.79-.18.88-2.82.2-2.87l-5.38-.23-.04-152.16,1.89-.67c-.54,1.03-.35,2.48.22,3.03s3.49.05,3.5-.74l.39-2.28,33.82.06.03,26.17,5.71-10.64c10.91-15.82,31.15-21.97,49.01-16.36v41.38c-8.58-2.36-16.56-3.34-25.07-2.19-10.89,1.96-19.93,8.61-24.34,19-2.31,5.43-4.52,12.07-4.53,18.31l-.12,80.14-35.29.06Z"/>
        <path class="st1" d="M1112.6,495.18l-4.22-.12c-.85-.02-.96-2.1-.96-2.99l5.38.23c.68.05.59,2.69-.2,2.87Z"/>
      </g>
    </g>
  </g>
  <path class="st1" d="M1113.39,339.25l-.39,2.28c-.01.79-2.93,1.28-3.5.74s-.76-2-.22-3.03h4.11Z"/>
  <g>
    <path class="st12" d="M919.95,592.06l.05-2.16-.05-37.74,6.09-.11c.73.11,2.12.25,2.32.96l.92,3.25c3.22-3.59,7.17-5.34,12.12-5.05,4.15.25,7.81,2.85,10.28,7.08,3.9-6.06,9.97-8.24,16.31-6.55,5.27,1.41,9.14,6.96,9.14,13.23l-.02,26.9-8.47.03-.36-27.86c-.05-4.02-5.51-5.57-8.5-4.95-2.48.52-6.62,3.74-6.67,7.11l-.38,25.65-8.13-.16-.25-26.67c-.04-4.66-4.87-6.75-8.62-6.04-2.56.48-6.82,3.39-6.87,7.16l-.38,25.74-8.5.18Z"/>
    <path class="st7" d="M1106.38,546.17c.62,1.16,1.07,3.81,1.5,5.67l-8.36.58c-1.7-7.07-8.17-9.56-15.04-7.76-3.25.85-5.99,3.71-6.09,6.99s2.63,6.12,5.94,6.96l12.87,3.27c4.91,1.25,9.15,4.97,10.55,9.01,1.79,5.15.87,10.86-2.41,15.13-4.54,5.91-12.01,7.07-19.32,6.65-9.66-.55-17.81-6.58-18.24-17.04l8.5-1.1c.77,2.79,2.14,6.46,4.15,7.86,4.71,3.3,10.09,3.52,15.11,1.13,2.43-1.16,4.17-4.46,4.12-7.04s-2.78-5.79-5.65-6.55l-12.71-3.34c-7.2-1.89-11.7-7.29-11.76-14.08-.06-7.29,4.5-12.85,11.85-15.06,9.32-2.8,20.28-.19,25.01,8.71Z"/>
    <path class="st3" d="M1309.57,588.17c-7.17,7.21-19.24,6.19-25.23-2.61-5.68-8.34-5.37-20.21,1.06-28.03s16.9-8.58,25.06-1.52l.68-19.59,8.24.02-.03,55.35-7.33.16-2.45-3.77ZM1309.24,579.69c3.17-6.21,2.39-13.92-2.47-18.39-3.54-3.26-8.8-3.33-12.65-.79-3.35,2.21-5.05,6.82-5.09,11.44-.05,5.63,2.36,10.84,7.07,12.53s10.48.43,13.15-4.79Z"/>
    <path class="st13" d="M806.51,571.62l-15.58.49v19.65s-8.55-.07-8.55-.07l.02-54.13,23.84.36c9.57.14,15.91,8.84,14.93,18.17.17,7.79-6.23,15.26-14.66,15.52ZM808.16,562.76c3.63-1.15,4.51-6.39,4.22-9.11-.99-9.22-10.38-8.23-21.53-7.87l.02,18.39c5.91.11,11.51.43,17.29-1.41Z"/>
    <polygon class="st7" points="1406.44 561.25 1406.58 569.38 1382.94 569.45 1382.95 591.9 1373.94 591.79 1373.81 566.96 1373.98 537.54 1408.52 537.56 1408.67 545.74 1382.97 545.73 1382.94 561.31 1406.44 561.25"/>
    <path class="st13" d="M1264.4,579.43l8.01,1.38c-2.15,7.71-8.79,11.85-16.41,12.09s-14.02-2.66-17.63-9.35-3.89-15.07-.6-21.68c4.44-8.89,14.19-12.59,22.76-9.77,9.17,3.01,13.96,12.05,12.37,22.25l-28.62.07c.05,6.04,3.62,9.48,8.35,10.73s9.65-1.09,11.77-5.73ZM1264.98,568.26c-.8-7.25-5.64-10.01-10.46-9.86-5.37.17-9.84,3.93-10.22,9.94l20.68-.08Z"/>
    <path class="st13" d="M1126.57,591.45l-8.03.37.09-55.05,8.35-.17.17,20.53c4.39-5.72,10.5-6.87,16.58-5.28,5.06,1.32,9.48,6.67,9.51,12.94l.12,27.05h-8.36s-.14-23.51-.14-23.51c-.03-5.42-3.22-9.42-8.37-9.46-4.37-.04-9.11,2.89-9.27,8.72l-.66,23.85Z"/>
    <path class="st12" d="M1194.86,558.41c2.63,4.85,1.04,13.35,1.19,18.31l.1,3.45.81,10.2c-2.22,2.35-8.18,1.63-8.39.74l-.77-3.37c-3.49,4.2-8.37,5.48-13.76,5.08-6.7-.5-11.49-5.2-11.8-11.38s3.92-11.68,10.8-12.28l15.12-1.31c1.2-4.86-1.98-8.59-6.68-9.22-3.94-.52-7.91.54-9.68,5.4l-8.06-.57c1.35-8.79,8.53-12.09,16.33-12.26,5.93-.13,11.84,1.76,14.79,7.21ZM1188.34,573.57l-13.25,1.43c-1.46.16-3.66,2.57-4.1,3.87s.43,4.65,1.64,5.46c3.38,2.25,8.21,1.95,11.05-.05,3.39-2.39,5.18-5.65,4.65-10.71Z"/>
    <path class="st12" d="M908.33,559.9c2.47,4.13,2.69,9.77,2.27,14.13l-29.1.39c.55,5.98,3.89,9.7,8.83,10.84,4.31.99,9.16-.5,11.78-5.32l8.03.86-2.23,5.66c-7.3,7.57-20.67,9.13-28.72,1.32-8.77-8.5-8.15-23.68.72-31.57,8.96-7.98,22.38-6.42,28.42,3.7ZM902.82,568.25c-.64-7.53-5.92-9.97-11.24-9.84-4.96.12-9.1,4.02-9.78,9.88l21.01-.04Z"/>
    <path class="st13" d="M1448.03,560.41c2.09,3.86,2.36,9.05,2.17,13.58l-28.48.34c-.19,5.09,3.36,9.74,7.89,10.83,5.1,1.22,9.72-.46,12.13-5.33l7.99,1.17c-.53,1.48-1.39,4.12-2.16,5.05-7.42,8.96-22.21,9.37-29.77.27-5.17-6.22-5.77-14.54-3.43-22.07s8.54-11.97,15.4-12.79c7.22-.87,14.59,2.17,18.27,8.96ZM1442.11,568.27c-.61-7.62-5.29-9.98-10.53-9.85-4.95.13-9.26,4.1-9.89,9.92l20.43-.07Z"/>
    <path class="st13" d="M866.71,572.09c0,11.29-9.15,20.44-20.44,20.44s-20.44-9.15-20.44-20.44,9.15-20.44,20.44-20.44,20.44,9.15,20.44,20.44ZM857.56,572.51c.28-7.97-4.82-13.98-11.98-13.73-6.67.23-10.55,6.13-10.64,13.24s3.84,13,10.59,13.22c6.73.22,11.76-5.02,12.03-12.73Z"/>
    <path class="st8" d="M1011.36,591.09c-9.48,4.42-24.36,1.35-25.83-10.5l8.34-.59c1.79,5.77,7.89,7.07,13,5.02,1.23-.49,3.04-2.5,3.37-3.64.39-1.33-1.69-4.25-3.05-4.59l-10.53-2.62c-4.55-1.13-8.3-4.18-9.11-8.08-1.02-4.92.77-9.64,5.25-12.33,5.77-3.47,13.48-3.52,19.3.13,3.09,1.93,4.91,5.2,5.56,8.8l-7.8.4c-2.24-4.58-7.96-6.05-12.37-3.57-.98.55-2.42,2.88-2.25,3.97s2.12,2.95,3.21,3.22l11.21,2.83c4.9,1.24,8.2,4.96,8.7,9.35.56,4.82-1.53,9.66-7.01,12.22Z"/>
    <path class="st7" d="M1499.26,584.15l.51,7.87-6.89-.09c-5.46-.07-10.21-4.58-10.24-10.15l-.15-22.09-6.39-.4-.1-6.93,6.54-.23.11-10.17h8.32s.27,9.85.27,9.85l8.54.44-.26,7.11-8.52.32.17,21.39c.02,2.48,3.76,4.49,8.12,3.07Z"/>
    <path class="st10" d="M1208.02,591.87v-2.04s0-2.85,0-2.85l-.02-30.98v-3.81s8.33.09,8.33.09l.66,5.32c3.58-4.97,8.41-6.95,13.79-6.08l-.27,8.54c-7.21-1.73-13.66,3.11-13.75,10.03l-.29,21.66-8.47.12Z"/>
    <polygon class="st6" points="1459.19 591.28 1459.82 536.74 1468.21 536.31 1468.19 591.86 1459.19 591.28"/>
    <circle class="st12" cx="1336.36" cy="586.54" r="6"/>
    <circle class="st10" cx="1514.21" cy="586.66" r="5.84"/>
    <circle class="st8" cx="1032.78" cy="586.68" r="5.87"/>
  </g>
</svg>