<?xml version="1.0" encoding="UTF-8"?>
<svg id="Layer_1" xmlns="http://www.w3.org/2000/svg" version="1.1" viewBox="0 0 595.28 841.89">
  <!-- Generator: Adobe Illustrator 30.3.0, SVG Export Plug-In . SVG Version: 2.1.3 Build 182)  -->
  <defs>
    <style>
      .st0 {
        fill: #79c36f;
      }

      .st1 {
        fill: #278441;
      }

      .st2 {
        fill: #71c16c;
      }

      .st3 {
        fill: #0a0d0c;
      }

      .st4 {
        fill: #76c26d;
      }

      .st5 {
        fill: #4bb85e;
      }
    </style>
  </defs>
  <path class="st5" d="M464.69,405.59l-.68,1.53v27.16l.65,2.22c-2.67,32.92-15.95,63.62-37.67,88.56-18.34,21.07-41.09,37.79-67.6,47.05l-18.53,5.5c-18.18,5.4-37.36,5.9-56.22,4.98-43.58-2.13-83.17-20.49-112.49-52.48-24.8-27.06-40.27-60.57-42.63-97.05,0,.71.71-1.62.71-2.24v-22.33c0-.53-.73-2.86-.68-2.61,6.17-77.95,67.96-137.7,145.09-146.26,3.48,1.29,6.76.73,9.7-1.02,6.61,1.3,12.96.21,19.76.06,7.59-.17,15.16.73,22.93,1.96,37.71,6.01,72.71,24.91,97.9,53.64,22.66,25.85,37.21,57.12,39.75,91.31v.02ZM348.88,323.09c-4.15,2.79-8.08,6.59-10.84,11.04-.1-.79-.73.54-1,1.11l-1.16,1.02c-2.32,2.03-4.87,7.35-6.44,10.53-1.06.62-3.91,1.39-4.56,2.39l-6.49,10.07-7.2,14.79-5.69,18.78c-.3,1-1.3,2.66-1.98,3.28l-2.32,2.13c-6.25,15.14-8.62,30.55-8.15,47,.2,2.75.97,6.11,1.76,7.99l.29,2.56c.09.76,1.26,1.38,2.01,1.43l2.01.14,2.3.26c2.97-4.96,4.41-9.68,6.25-15.03l8.43-24.53,13.9-34.75c1.78-1.42,2.61-3.91,3.98-6.25l11.19-19.17,1.93-1.11c.5-.29,1.83.72,2.32,1.11l-.15.48c-1.51.17-2.95,2.3-3.82,4.09l-4.18,8.65-4.9,10.24-5.96,13.3-14.08,35.94-8.54,24.28-11.16,29.74-24.55-64.3-2.56-6.49-15.68-39.65c2.03-5.13,8.26-4.26,8.66-5.08l.33-1.81c.22-.03,1.24.23,1.42.12l4.71-2.89-2.69-1.36-.08-1.03c-.08-1.07-1.61-2.25-3.14-2.85l-61.99-.05-2.94,1.91-.95,1.1c-.38.28-1.39,1.12-1.11,1.53l1.06,1.55.92,1.2c1.11,3.37,8.95,1.64,10.58,5.76l10.92,27.48,4.04,10.15,29.19,74.62,16.68,41.32,2.72-.76-2.05,1.93,32.09.15.89-2.05c.47-.24.77-.47.66-.71l-.58-1.35.49-1.28,2.42-2.92,15.35-59.09,2.82-2.47,5.81-5.04,7.11-7.08,5.77-6.06c.2.37.57.91.57.93-.06-.52,9.47-10.84,14.42-22.78.5-1.22-2.73-3.4-3.77-3.34l5.81-7.74,2-1.93c.39-.38,1.88-.21,1.94-.75l-.04-2.47,1.54-.58c6.62-7.81,10.75-17.21,13.04-28.67l-2.39.33-.93.18-6.1-1.04,8.16-8.76,5.88-9.03c10.07-15.46,5.9-50.67-2-48.27-10.87,3.31-26.82,10.33-32.23,17.89l.03.02Z"/>
  <path class="st1" d="M464.66,436.5l-.65-2.22v-27.16l.68-1.53c.78,10.44.81,20.54-.03,30.92h0Z"/>
  <polygon class="st2" points="269.47 525.84 252.79 484.51 223.6 409.89 219.56 399.74 208.64 372.26 211.92 376.54 231.52 425.78 234.63 433.67 269.47 525.84"/>
  <path class="st0" d="M266.21,362.11l-11.03-1.88-50.91.03-6.12.86,2.94-1.91,61.99.05c1.53.6,3.06,1.78,3.14,2.85h-.01Z"/>
  <path class="st4" d="M302.99,397.54c-6.3,15.41-11.06,39.46-8.18,55.69-.79-1.88-1.56-5.24-1.76-7.99-.47-16.45,1.9-31.86,8.15-47l2.32-2.13-.53,1.43h0Z"/>
  <polygon class="st0" points="303.11 525.11 302.23 527.16 270.14 527.01 272.19 525.08 303.11 525.11"/>
  <path class="st2" d="M297.11,457.21c-.74-.05-1.92-.67-2.01-1.43l-.29-2.56,2.3,3.99h0Z"/>
  <polygon class="st2" points="264.26 367.38 266.28 363.13 268.97 364.49 264.26 367.38"/>
  <path class="st0" d="M197.14,365.29l-1.06-1.55c-.28-.41.72-1.25,1.11-1.53l-.05,3.07h0Z"/>
  <path class="st4" d="M338.04,334.13l-1,1.11c.27-.57.89-1.9,1-1.11Z"/>
  <g>
    <path class="st3" d="M375.17,372.29l.93-.18c-1.74,10.09-5.47,19.62-10.65,28.34l-1.54.58-1.9,3.23-2,1.93-7.13,6.68-10.08,7.1,14.07-4.05c-4.35,8.74-7.88,16.89-13.89,23.2l-5.77,6.06-7.11,7.08-5.81,5.04c-2.27.24-4.57,2.29-5.21,4.79l-15.38,59.69-.49,1.28-.08,2.06-30.93-.03-2.72.76-34.84-92.17-3.1-7.89-19.6-49.24-3.28-4.28c.24-1.25-1.15-3.62-2.35-3.93l-8.23-1.83-.92-1.2.05-3.07.95-1.1,6.12-.86,50.91-.03,11.03,1.88.08,1.03-2.03,4.25c-.18.11-1.2-.15-1.42-.12-3.26.44-8.68,3.16-10.83,7.02l17.11,42.97,27.29,70.41,12.99-32.25c11.48-33.49,23.32-66.44,39.86-97.05l.15-.48,12.87-22.68c-5.25,4.7-9.56,10.95-13.35,15.79l-1.03,1.31-3.9,5.59-9.7,15.62c-2.09,3.36-3.04,6.63-4.32,9.81-.42.49-1.55,1.82-1.95,2.68l-4.17,8.98c-8.49,18.29-14.73,36.95-20.55,56.33-.72,2.4-2.51,4.8-4.2,6.06l-2.01-.14-2.3-3.99c-2.88-16.23,1.88-40.28,8.18-55.69.6-.38.68.32.83.87l2.86,11.01.49-15.18c2.63-16.78,9.95-31.62,19.11-45.23l.78,1.15.56,8.52c2.67-8.72,4.96-15.34,8.26-22.42l1.16-1.02,1-1.11c2.76-4.45,6.69-8.25,10.84-11.04,10.3-6.92,19.24-13.76,34.09-16.16,8.24,16.76,4.28,40.04-6.31,54.75-4.52,6.27-10.1,8.98-17.45,13.15l15.96-2.54v-.04Z"/>
    <path class="st2" d="M349.26,358.36c-16.54,30.61-28.38,63.55-39.86,97.05l-12.99,32.25-27.29-70.41-17.11-42.97c2.15-3.85,7.57-6.58,10.83-7.02l-.33,1.81c-.4.83-6.63-.05-8.66,5.08l15.68,39.65,2.56,6.49,24.55,64.3,11.16-29.74,8.54-24.28,14.08-35.94,5.96-13.3,4.9-10.24,4.18-8.65c.86-1.78,2.31-3.92,3.82-4.09h-.02Z"/>
    <path class="st2" d="M375.17,372.29l-15.96,2.54c7.35-4.17,12.93-6.88,17.45-13.15,10.59-14.7,14.56-37.99,6.31-54.75-14.85,2.39-23.79,9.24-34.09,16.16,5.41-7.57,21.35-14.59,32.23-17.89,7.9-2.4,12.07,32.8,2,48.27l-5.88,9.03-8.16,8.76,6.1,1.04h0Z"/>
    <path class="st2" d="M299.12,457.35c1.69-1.25,3.48-3.65,4.2-6.06,5.82-19.38,12.06-38.04,20.55-56.33l4.17-8.98c.4-.86,1.53-2.18,1.95-2.68l-13.9,34.75-8.43,24.53c-1.84,5.35-3.28,10.07-6.25,15.03l-2.3-.26h0Z"/>
    <path class="st2" d="M324.28,457.3l-2.82,2.47-15.35,59.09-2.42,2.92,15.38-59.69c.64-2.5,2.94-4.55,5.21-4.79h0Z"/>
    <path class="st2" d="M326.28,349.01c-9.16,13.61-16.48,28.44-19.11,45.23l-.49,15.18-2.86-11.01c-.14-.56-.23-1.26-.83-.87l.53-1.43c.68-.62,1.67-2.28,1.98-3.28l5.69-18.78,7.2-14.79,6.49-10.07,1.4-.17h0Z"/>
    <path class="st2" d="M342.97,439.11c6.02-6.31,9.55-14.46,13.89-23.2l-14.07,4.05,10.08-7.1,7.13-6.68-5.81,7.74c1.04-.06,4.28,2.12,3.77,3.34-4.95,11.94-14.48,22.25-14.42,22.78,0-.02-.38-.56-.57-.93h0Z"/>
    <path class="st4" d="M326.28,349.01l-1.4.17c.64-1,3.5-1.77,4.56-2.39,1.57-3.18,4.13-8.51,6.44-10.53-3.3,7.09-5.59,13.71-8.26,22.42l-.56-8.52-.78-1.15h0Z"/>
    <path class="st2" d="M365.45,400.45c5.19-8.72,8.92-18.25,10.65-28.34l2.39-.33c-2.29,11.46-6.42,20.86-13.04,28.67h0Z"/>
    <path class="st0" d="M208.64,372.26c-1.64-4.12-9.48-2.4-10.58-5.76l8.23,1.83c1.21.32,2.59,2.69,2.35,3.93h0Z"/>
    <path class="st4" d="M345.17,357.88l-11.19,19.17c-1.38,2.34-2.2,4.83-3.98,6.25,1.27-3.19,2.23-6.45,4.32-9.81l9.7-15.62h1.16-.01Z"/>
    <path class="st2" d="M349.41,357.88c-.49-.39-1.82-1.4-2.32-1.11l-1.93,1.11h-1.16l3.9-5.59,2.09,2.06c.49.46,1.21-2.09.66-2.46l-1.73-.9c3.79-4.83,8.11-11.09,13.35-15.79l-12.87,22.68h.01Z"/>
    <path class="st2" d="M362,404.26l1.9-3.23.04,2.47c-.07.54-1.55.37-1.94.75h0Z"/>
    <path class="st2" d="M303.11,525.11l.08-2.06.58,1.35c.1.24-.19.47-.66.71h0Z"/>
    <path class="st5" d="M347.91,352.29l1.03-1.31,1.73.9c.55.38-.18,2.92-.66,2.46l-2.09-2.06h-.01Z"/>
  </g>
</svg>